<?xml version="1.0" encoding="utf-8"?>
<!-- Generator: Adobe Illustrator 23.0.2, SVG Export Plug-In . SVG Version: 6.00 Build 0)  -->
<svg version="1.1" id="Layer_1" xmlns="http://www.w3.org/2000/svg" xmlns:xlink="http://www.w3.org/1999/xlink" x="0px" y="0px"
	 viewBox="0 0 164 49.5" style="enable-background:new 0 0 164 49.5;" xml:space="preserve">
<style type="text/css">
	.st0{fill:#F15A29;}
	.st1{fill:#FBB040;}
	.st2{fill:none;stroke:#FBB040;stroke-width:2;stroke-linecap:round;stroke-linejoin:round;stroke-miterlimit:10;}
	.st3{fill:#2E2E2E;}
	.st4{fill:#FAAF40;}
</style>
<g>
	<g>
		<path class="st0" d="M30.3,29.4c0,1.9-0.7,3.4-2.1,4.5c-1.4,1.1-3.5,1.6-6.3,1.6c-1.1,0-2-0.1-2.9-0.2c-0.9-0.2-1.7-0.4-2.3-0.7
			c-0.6-0.3-1.1-0.7-1.5-1.2c-0.4-0.5-0.6-1-0.6-1.7c0-0.6,0.1-1.1,0.4-1.5s0.6-0.8,0.9-1c0.7,0.4,1.6,0.8,2.5,1.1
			c0.9,0.3,2,0.5,3.3,0.5c0.8,0,1.4-0.1,1.8-0.3c0.4-0.2,0.6-0.5,0.6-0.9c0-0.4-0.1-0.6-0.5-0.8c-0.3-0.2-0.8-0.4-1.5-0.5l-1.1-0.2
			c-2.2-0.4-3.8-1.1-4.9-2s-1.6-2.2-1.6-3.9c0-0.9,0.2-1.8,0.6-2.5c0.4-0.8,1-1.4,1.7-1.9c0.7-0.5,1.6-0.9,2.6-1.2
			c1-0.3,2.1-0.4,3.4-0.4c0.9,0,1.8,0.1,2.6,0.2c0.8,0.1,1.5,0.4,2.1,0.6c0.6,0.3,1.1,0.6,1.4,1.1c0.4,0.4,0.5,1,0.5,1.6
			c0,0.6-0.1,1.1-0.3,1.5s-0.5,0.8-0.8,1c-0.2-0.1-0.5-0.3-0.9-0.4s-0.8-0.3-1.3-0.4s-1-0.2-1.5-0.3c-0.5-0.1-0.9-0.1-1.3-0.1
			c-0.8,0-1.5,0.1-1.9,0.3s-0.7,0.5-0.7,0.9c0,0.3,0.1,0.5,0.4,0.7s0.7,0.3,1.4,0.5l1.2,0.3c2.4,0.5,4.1,1.3,5.1,2.3
			C29.7,26.6,30.3,27.8,30.3,29.4z"/>
		<path class="st0" d="M33.2,11.4c0-1,0.3-1.8,1-2.4s1.5-1,2.5-1s1.9,0.3,2.5,1c0.6,0.7,1,1.5,1,2.4c0,1-0.3,1.8-1,2.4s-1.5,1-2.5,1
			s-1.9-0.3-2.5-1C33.5,13.2,33.2,12.4,33.2,11.4z M39.9,34.8c-0.3,0-0.7,0.1-1.2,0.2s-1.1,0.1-1.6,0.1s-1,0-1.5-0.1
			c-0.4-0.1-0.8-0.2-1.1-0.5c-0.3-0.2-0.5-0.5-0.7-0.9c-0.2-0.4-0.3-0.9-0.3-1.5V16.8c0.3,0,0.7-0.1,1.2-0.2
			c0.5-0.1,1.1-0.1,1.6-0.1s1,0,1.5,0.1c0.4,0.1,0.8,0.2,1.1,0.4c0.3,0.2,0.5,0.5,0.7,0.9c0.2,0.4,0.2,0.9,0.2,1.5L39.9,34.8
			L39.9,34.8z"/>
		<path class="st0" d="M50.4,28.5c0,0.6,0.2,1.1,0.6,1.4c0.4,0.3,1,0.4,1.8,0.4c0.4,0,0.8,0,1.2-0.1c0.4-0.1,0.8-0.1,1.1-0.3
			c0.2,0.3,0.4,0.6,0.6,0.9c0.2,0.3,0.3,0.8,0.3,1.2c0,1-0.4,1.7-1.1,2.3c-0.7,0.6-2,0.9-3.8,0.9c-2.2,0-3.9-0.5-5.1-1.5
			c-1.2-1-1.8-2.6-1.8-4.9V12.8c0.3-0.1,0.7-0.2,1.2-0.3s1.1-0.1,1.6-0.1c1.1,0,2,0.2,2.6,0.6c0.6,0.4,0.9,1.2,0.9,2.5v2.4h4.9
			c0.2,0.3,0.3,0.6,0.4,1c0.1,0.4,0.2,0.9,0.2,1.4c0,0.9-0.2,1.5-0.6,1.9c-0.4,0.4-0.9,0.6-1.6,0.6h-3.4L50.4,28.5L50.4,28.5z"/>
		<path class="st1" d="M77.8,25.7c0,1.6-0.2,3-0.7,4.2s-1.2,2.2-2,3.1c-0.9,0.8-1.9,1.5-3.1,1.9c-1.2,0.4-2.6,0.6-4,0.6
			c-1.5,0-2.8-0.2-4-0.7c-1.2-0.5-2.2-1.1-3.1-1.9s-1.5-1.9-2-3.1c-0.5-1.2-0.7-2.6-0.7-4.1c0-1.5,0.2-2.8,0.7-4
			c0.5-1.2,1.2-2.2,2-3.1s1.9-1.5,3.1-1.9c1.2-0.4,2.6-0.7,4-0.7c1.5,0,2.8,0.2,4,0.7c1.2,0.5,2.2,1.1,3.1,2s1.5,1.9,2,3.1
			C77.6,22.9,77.8,24.2,77.8,25.7z M64.6,25.7c0,1.5,0.3,2.7,0.9,3.5c0.6,0.8,1.4,1.2,2.5,1.2s1.9-0.4,2.4-1.2
			c0.6-0.8,0.8-2,0.8-3.5s-0.3-2.7-0.9-3.5S69,21,67.9,21s-1.9,0.4-2.4,1.2C64.9,23,64.6,24.2,64.6,25.7z"/>
		<path class="st1" d="M99.9,25.7c0,1.6-0.2,3-0.7,4.2s-1.2,2.2-2,3.1c-0.9,0.8-1.9,1.5-3.1,1.9c-1.2,0.4-2.6,0.6-4,0.6
			c-1.5,0-2.8-0.2-4-0.7s-2.2-1.1-3.1-1.9s-1.5-1.9-2-3.1c-0.5-1.2-0.7-2.6-0.7-4.1c0-1.5,0.2-2.8,0.7-4c0.5-1.2,1.2-2.2,2-3.1
			c0.9-0.8,1.9-1.5,3.1-1.9c1.2-0.4,2.6-0.7,4-0.7c1.5,0,2.8,0.2,4,0.7c1.2,0.5,2.2,1.1,3.1,2s1.5,1.9,2,3.1
			C99.7,22.9,99.9,24.2,99.9,25.7z M86.7,25.7c0,1.5,0.3,2.7,0.9,3.5c0.6,0.8,1.4,1.2,2.5,1.2s1.9-0.4,2.4-1.2
			c0.6-0.8,0.8-2,0.8-3.5S93,23,92.5,22.2S91.1,21,90,21s-1.9,0.4-2.4,1.2C87,23,86.7,24.2,86.7,25.7z"/>
		<path class="st0" d="M113.2,34.3c-0.3,0.3-0.8,0.5-1.4,0.7c-0.6,0.2-1.3,0.3-2.2,0.3c-1,0-1.9-0.1-2.7-0.4
			c-0.8-0.3-1.3-0.7-1.5-1.2c-0.3-0.6-0.6-1.6-1-2.9c-0.4-1.3-0.7-2.7-1.1-4.3s-0.7-3.1-1-4.8c-0.3-1.6-0.6-3-0.7-4.3
			c0.3-0.4,0.8-0.7,1.4-0.9c0.6-0.3,1.2-0.4,1.9-0.4c0.9,0,1.6,0.2,2.2,0.6c0.6,0.4,0.9,1.1,1,2c0.3,1.9,0.5,3.5,0.6,4.7
			s0.3,2.3,0.4,3c0.1,0.8,0.2,1.4,0.3,1.8c0.1,0.4,0.1,0.8,0.2,1h0.2c0.1-0.4,0.2-1,0.4-1.8c0.2-0.8,0.4-1.6,0.7-2.6
			c0.3-1,0.5-2,0.8-3.2c0.3-1.1,0.6-2.3,0.8-3.4c0.5-0.3,1-0.5,1.5-0.6c0.5-0.2,1.1-0.2,1.8-0.2c0.9,0,1.6,0.1,2.3,0.4
			c0.6,0.3,1,0.7,1.2,1.3c0.3,1.1,0.6,2.2,0.9,3.2c0.3,1,0.5,2,0.8,2.9c0.2,0.9,0.4,1.7,0.6,2.4c0.2,0.7,0.3,1.2,0.4,1.6h0.2
			c0.3-1.9,0.6-4,0.8-6c0.3-2.1,0.5-4.2,0.7-6.4c0.4-0.3,0.9-0.5,1.4-0.6c0.5-0.1,1-0.2,1.5-0.2c0.9,0,1.6,0.2,2.2,0.6
			c0.6,0.4,0.9,1,0.9,2c0,0.4-0.1,1-0.2,1.8s-0.3,1.7-0.5,2.7c-0.2,1-0.4,2.1-0.7,3.2c-0.3,1.1-0.5,2.2-0.8,3.2
			c-0.3,1-0.5,2-0.8,2.8c-0.2,0.8-0.4,1.5-0.6,1.9c-0.3,0.3-0.9,0.5-1.6,0.7c-0.7,0.2-1.5,0.3-2.3,0.3c-2.1,0-3.4-0.5-3.7-1.6
			c-0.2-0.5-0.3-1-0.6-1.7s-0.5-1.5-0.7-2.3s-0.5-1.7-0.7-2.6s-0.4-1.8-0.6-2.6c-0.2,0.9-0.4,1.8-0.6,2.7c-0.3,0.9-0.5,1.9-0.8,2.8
			c-0.3,0.9-0.5,1.7-0.7,2.5S113.4,33.8,113.2,34.3z"/>
		<path class="st0" d="M140.2,15.9c1.4,0,2.6,0.1,3.7,0.4c1.1,0.3,2.1,0.7,2.9,1.3c0.8,0.6,1.4,1.3,1.8,2.1c0.4,0.9,0.6,1.9,0.6,3.1
			v8.4c0,0.6-0.2,1.2-0.6,1.6c-0.4,0.4-0.8,0.8-1.3,1.1c-1.6,1-3.9,1.5-6.9,1.5c-1.3,0-2.5-0.1-3.6-0.4s-2-0.6-2.8-1.1
			c-0.8-0.5-1.4-1.1-1.8-1.9c-0.4-0.8-0.6-1.7-0.6-2.7c0-1.7,0.5-3.1,1.6-4c1-0.9,2.6-1.5,4.8-1.7L143,23v-0.3c0-0.7-0.3-1.3-1-1.6
			s-1.6-0.5-2.8-0.5c-1,0-1.9,0.1-2.8,0.3c-0.9,0.2-1.7,0.5-2.4,0.8c-0.3-0.2-0.6-0.6-0.8-1c-0.2-0.5-0.3-0.9-0.3-1.4
			c0-0.6,0.2-1.2,0.5-1.6c0.3-0.4,0.8-0.7,1.4-1c0.7-0.3,1.6-0.5,2.6-0.6C138.3,16,139.3,15.9,140.2,15.9z M140.5,30.8
			c0.4,0,0.9,0,1.4-0.1c0.5-0.1,0.9-0.2,1.1-0.4v-3l-2.7,0.2c-0.7,0-1.3,0.2-1.7,0.5s-0.7,0.6-0.7,1.1s0.2,0.9,0.6,1.2
			S139.5,30.8,140.5,30.8z"/>
	</g>
	<g>
		<path class="st1" d="M61.6,39.6c2.9,0.8,5.7,1.5,8.5,2c2.8,0.5,5.5,0.7,8.3,0.7c2.8,0,5.5-0.2,8.3-0.7c2.8-0.5,5.5-1.2,8.5-2
			c-2.1,2.2-4.8,3.9-7.6,5c-2.9,1.1-6,1.7-9.1,1.7s-6.2-0.6-9.1-1.7C66.3,43.5,63.7,41.8,61.6,39.6z"/>
	</g>
	<path class="st2" d="M63.5,37.9c0,0-2.5,0.5-2.5,4.1"/>
	<path class="st2" d="M93,37.9c0,0,2.5,0.5,2.5,4.1"/>
	<g>
		<path class="st3" d="M18.8,38.1c0,0,0.1,0.1,0.1,0.2s0,0.2,0,0.3c0,0.2,0,0.3-0.1,0.4c-0.1,0.1-0.2,0.1-0.3,0.1h-1.5V40h1.6
			c0,0,0.1,0.1,0.1,0.2c0,0.1,0,0.2,0,0.3c0,0.2,0,0.3-0.1,0.4S18.4,41,18.2,41h-1.3v1.5c0,0-0.1,0-0.3,0s-0.2,0-0.3,0s-0.2,0-0.3,0
			s-0.2,0-0.2-0.1s-0.1-0.1-0.1-0.2c0-0.1,0-0.2,0-0.3v-3.2c0-0.2,0.1-0.4,0.2-0.5s0.3-0.2,0.5-0.2L18.8,38.1L18.8,38.1z"/>
		<path class="st3" d="M24.2,40.8c0,0.3,0,0.6-0.1,0.8c-0.1,0.2-0.2,0.4-0.4,0.6s-0.4,0.3-0.6,0.4c-0.2,0.1-0.5,0.1-0.8,0.1
			s-0.5,0-0.8-0.1s-0.4-0.2-0.6-0.4s-0.3-0.4-0.4-0.6s-0.1-0.5-0.1-0.8s0-0.5,0.1-0.8s0.2-0.4,0.4-0.6c0.2-0.2,0.4-0.3,0.6-0.4
			s0.5-0.1,0.8-0.1s0.5,0,0.8,0.1s0.4,0.2,0.6,0.4S24,39.8,24,40C24.1,40.3,24.2,40.5,24.2,40.8z M21.6,40.8c0,0.3,0.1,0.5,0.2,0.7
			s0.3,0.2,0.5,0.2c0.2,0,0.4-0.1,0.5-0.2c0.1-0.2,0.2-0.4,0.2-0.7s-0.1-0.5-0.2-0.7s-0.3-0.2-0.5-0.2s-0.4,0.1-0.5,0.2
			S21.6,40.5,21.6,40.8z"/>
		<path class="st3" d="M29.7,40.8c0,0.3,0,0.6-0.1,0.8c-0.1,0.2-0.2,0.4-0.4,0.6s-0.4,0.3-0.6,0.4c-0.2,0.1-0.5,0.1-0.8,0.1
			s-0.5,0-0.8-0.1s-0.4-0.2-0.6-0.4s-0.3-0.4-0.4-0.6s-0.1-0.5-0.1-0.8s0-0.5,0.1-0.8s0.2-0.4,0.4-0.6c0.2-0.2,0.4-0.3,0.6-0.4
			s0.5-0.1,0.8-0.1s0.5,0,0.8,0.1s0.4,0.2,0.6,0.4s0.3,0.4,0.4,0.6C29.6,40.3,29.7,40.5,29.7,40.8z M27.1,40.8
			c0,0.3,0.1,0.5,0.2,0.7s0.3,0.2,0.5,0.2c0.2,0,0.4-0.1,0.5-0.2c0.1-0.2,0.2-0.4,0.2-0.7s-0.1-0.5-0.2-0.7s-0.3-0.2-0.5-0.2
			s-0.4,0.1-0.5,0.2S27.1,40.5,27.1,40.8z"/>
		<path class="st3" d="M31.3,40.8c0-0.3,0-0.6,0.1-0.8s0.2-0.4,0.4-0.6c0.2-0.2,0.4-0.3,0.6-0.3c0.2-0.1,0.5-0.1,0.8-0.1
			c0.1,0,0.2,0,0.3,0c0.1,0,0.2,0,0.2,0.1v-1.2c0,0,0.1,0,0.2,0s0.2,0,0.3,0s0.2,0,0.3,0c0.1,0,0.2,0,0.2,0.1c0.1,0,0.1,0.1,0.1,0.2
			s0,0.2,0,0.3v3.5c0,0.2-0.1,0.4-0.3,0.5c-0.1,0.1-0.3,0.2-0.5,0.3c-0.2,0.1-0.5,0.1-0.8,0.1c-0.3,0-0.6,0-0.9-0.1
			c-0.3-0.1-0.5-0.2-0.6-0.4c-0.2-0.2-0.3-0.4-0.4-0.6C31.3,41.4,31.3,41.1,31.3,40.8z M33.4,39.9c-0.3,0-0.5,0.1-0.6,0.2
			c-0.1,0.2-0.2,0.4-0.2,0.7c0,0.3,0.1,0.5,0.2,0.7c0.1,0.2,0.3,0.2,0.6,0.2c0.1,0,0.2,0,0.2,0c0.1,0,0.1-0.1,0.2-0.1V40
			C33.6,39.9,33.5,39.9,33.4,39.9z"/>
		<path class="st3" d="M43.7,42.4c-0.1,0.1-0.2,0.1-0.3,0.2s-0.3,0-0.5,0s-0.3,0-0.5-0.1c-0.2,0-0.3-0.2-0.4-0.4l-0.7-1.5
			c-0.1-0.2-0.1-0.3-0.2-0.4S41,40,40.9,39.8l0,0c0,0.3,0,0.5,0,0.8s0,0.5,0,0.8v1.1c0,0-0.1,0-0.3,0s-0.2,0-0.3,0s-0.2,0-0.3,0
			s-0.2,0-0.2-0.1c0,0-0.1-0.1-0.1-0.2c0-0.1,0-0.2,0-0.3v-3.7c0.1-0.1,0.2-0.2,0.3-0.2c0.1,0,0.3-0.1,0.5-0.1c0.2,0,0.3,0,0.5,0.1
			c0.2,0.1,0.3,0.2,0.4,0.4l0.7,1.5c0.1,0.2,0.1,0.3,0.2,0.4c0.1,0.1,0.1,0.3,0.2,0.5l0,0c0-0.3,0-0.5,0-0.8c0-0.3,0-0.5,0-0.8v-1.2
			c0,0,0.1,0,0.3,0s0.2,0,0.3,0c0.2,0,0.4,0,0.5,0.1s0.2,0.2,0.2,0.5L43.7,42.4L43.7,42.4z"/>
		<path class="st3" d="M49.5,40.8c0,0.3,0,0.6-0.1,0.8c-0.1,0.2-0.2,0.4-0.4,0.6s-0.4,0.3-0.6,0.4c-0.2,0.1-0.5,0.1-0.8,0.1
			s-0.5,0-0.8-0.1s-0.4-0.2-0.6-0.4s-0.3-0.4-0.4-0.6s-0.1-0.5-0.1-0.8s0-0.5,0.1-0.8s0.2-0.4,0.4-0.6c0.2-0.2,0.4-0.3,0.6-0.4
			s0.5-0.1,0.8-0.1s0.5,0,0.8,0.1s0.4,0.2,0.6,0.4c0.2,0.2,0.3,0.4,0.4,0.6C49.4,40.3,49.5,40.5,49.5,40.8z M46.9,40.8
			c0,0.3,0.1,0.5,0.2,0.7s0.3,0.2,0.5,0.2c0.2,0,0.4-0.1,0.5-0.2s0.2-0.4,0.2-0.7s-0.1-0.5-0.2-0.7s-0.3-0.2-0.5-0.2
			S47.2,40,47,40.1S46.9,40.5,46.9,40.8z"/>
		<path class="st3" d="M53.2,42.5c-0.1,0.1-0.2,0.1-0.3,0.1s-0.3,0-0.4,0c-0.2,0-0.4,0-0.5-0.1c-0.2-0.1-0.3-0.1-0.3-0.2
			c0-0.1-0.1-0.3-0.2-0.6c-0.1-0.3-0.1-0.5-0.2-0.8s-0.1-0.6-0.2-0.9S51,39.4,51,39.2c0.1-0.1,0.2-0.1,0.3-0.2s0.2-0.1,0.4-0.1
			c0.2,0,0.3,0,0.4,0.1s0.2,0.2,0.2,0.4c0,0.4,0.1,0.7,0.1,0.9c0,0.2,0.1,0.4,0.1,0.6c0,0.2,0,0.3,0,0.3s0,0.2,0,0.2h0
			c0-0.1,0-0.2,0.1-0.3s0.1-0.3,0.1-0.5s0.1-0.4,0.2-0.6c0-0.2,0.1-0.4,0.2-0.7c0.1,0,0.2-0.1,0.3-0.1c0.1,0,0.2,0,0.4,0
			c0.2,0,0.3,0,0.4,0.1c0.1,0,0.2,0.1,0.2,0.3c0.1,0.2,0.1,0.4,0.2,0.6s0.1,0.4,0.2,0.6c0,0.2,0.1,0.3,0.1,0.5
			c0,0.1,0.1,0.2,0.1,0.3h0c0-0.4,0.1-0.8,0.2-1.2s0.1-0.8,0.1-1.2c0.1,0,0.2-0.1,0.3-0.1s0.2,0,0.3,0c0.2,0,0.3,0,0.4,0.1
			c0.1,0.1,0.2,0.2,0.2,0.4c0,0.1,0,0.2,0,0.3c0,0.2-0.1,0.3-0.1,0.5c0,0.2-0.1,0.4-0.1,0.6c0,0.2-0.1,0.4-0.2,0.6
			c0,0.2-0.1,0.4-0.2,0.5c0,0.2-0.1,0.3-0.1,0.4c-0.1,0.1-0.2,0.1-0.3,0.1c-0.1,0-0.3,0-0.5,0c-0.4,0-0.7-0.1-0.7-0.3
			c0-0.1-0.1-0.2-0.1-0.3s-0.1-0.3-0.1-0.4s-0.1-0.3-0.1-0.5s-0.1-0.3-0.1-0.5c0,0.2-0.1,0.3-0.1,0.5s-0.1,0.4-0.2,0.5
			c0,0.2-0.1,0.3-0.1,0.5C53.3,42.3,53.3,42.4,53.2,42.5z"/>
	</g>
	<g>
		<g>
			<path class="st3" d="M113.1,37.8c0,0,0.1,0.1,0.1,0.2s0,0.2,0,0.3c0,0.2,0,0.3-0.1,0.4s-0.2,0.1-0.3,0.1h-1.5v0.8h1.6
				c0,0,0.1,0.1,0.1,0.2c0,0.1,0,0.2,0,0.3c0,0.2,0,0.3-0.1,0.4s-0.2,0.1-0.3,0.1h-1.3v1.5c-0.1,0-0.1,0-0.3,0s-0.2,0-0.3,0
				c-0.1,0-0.2,0-0.3,0c-0.1,0-0.2,0-0.2-0.1s-0.1-0.1-0.1-0.2s0-0.2,0-0.3v-3.2c0-0.2,0.1-0.4,0.2-0.5s0.3-0.2,0.5-0.2L113.1,37.8
				L113.1,37.8z"/>
			<path class="st3" d="M118.5,40.5c0,0.3-0.1,0.6-0.1,0.8c-0.1,0.2-0.2,0.4-0.4,0.6s-0.4,0.3-0.6,0.4c-0.2,0.1-0.5,0.1-0.8,0.1
				s-0.6,0-0.8-0.1s-0.4-0.2-0.6-0.4c-0.2-0.2-0.3-0.4-0.4-0.6c-0.1-0.2-0.1-0.5-0.1-0.8s0.1-0.5,0.1-0.8s0.2-0.4,0.4-0.6
				c0.2-0.2,0.4-0.3,0.6-0.4s0.5-0.1,0.8-0.1s0.6,0,0.8,0.1s0.4,0.2,0.6,0.4s0.3,0.4,0.4,0.6C118.5,40,118.5,40.2,118.5,40.5z
				 M115.9,40.5c0,0.3,0.1,0.5,0.2,0.7s0.3,0.2,0.5,0.2s0.4-0.1,0.5-0.2s0.2-0.4,0.2-0.7s-0.1-0.5-0.2-0.7s-0.3-0.2-0.5-0.2
				s-0.4,0.1-0.5,0.2C116,40,115.9,40.2,115.9,40.5z"/>
			<path class="st3" d="M121.6,42.3c-0.1,0-0.1,0-0.2,0s-0.2,0-0.3,0c-0.1,0-0.2,0-0.3,0s-0.2,0-0.2-0.1s-0.1-0.1-0.1-0.2
				c0-0.1-0.1-0.2-0.1-0.3v-2.2c0-0.1,0-0.2,0.1-0.3s0.1-0.2,0.2-0.2c0.1-0.1,0.2-0.1,0.3-0.2c0.1,0,0.2-0.1,0.4-0.1
				c0.1,0,0.3-0.1,0.4-0.1c0.1,0,0.3,0,0.4,0c0.2,0,0.4,0,0.6,0.1s0.2,0.2,0.2,0.4c0,0.1,0,0.1,0,0.2c0,0.1,0,0.1-0.1,0.2
				c-0.1,0-0.2,0-0.3,0s-0.2,0-0.3,0c-0.1,0-0.2,0-0.3,0.1c-0.1,0-0.2,0-0.2,0.1L121.6,42.3L121.6,42.3z"/>
			<path class="st3" d="M126.3,42.4c-0.3,0-0.6,0-0.8-0.1c-0.3-0.1-0.5-0.2-0.7-0.4c-0.2-0.2-0.3-0.4-0.4-0.6s-0.2-0.5-0.2-0.9
				c0-0.3,0.1-0.6,0.2-0.8c0.1-0.2,0.2-0.4,0.4-0.6s0.4-0.3,0.6-0.3s0.4-0.1,0.7-0.1c0.3,0,0.5,0,0.7,0.1c0.2,0.1,0.4,0.2,0.6,0.3
				c0.2,0.1,0.3,0.3,0.4,0.5s0.1,0.4,0.1,0.6c0,0.2-0.1,0.3-0.1,0.4s-0.2,0.1-0.4,0.2l-1.8,0.3c0.1,0.2,0.2,0.3,0.3,0.4
				s0.4,0.1,0.6,0.1c0.2,0,0.4,0,0.6-0.1c0.2,0,0.3-0.1,0.4-0.2c0.1,0,0.1,0.1,0.2,0.2c0.1,0.1,0.1,0.2,0.1,0.3
				c0,0.2-0.1,0.4-0.3,0.5c-0.2,0.1-0.3,0.1-0.5,0.2S126.4,42.4,126.3,42.4z M126.1,39.5c-0.1,0-0.2,0-0.3,0.1s-0.2,0.1-0.2,0.2
				c-0.1,0.1-0.1,0.1-0.1,0.2c0,0.1,0,0.2-0.1,0.2l1.3-0.2c0-0.1-0.1-0.2-0.2-0.3C126.4,39.6,126.2,39.5,126.1,39.5z"/>
			<path class="st3" d="M131.9,42.2c-0.1,0-0.2,0.1-0.3,0.1c-0.1,0-0.3,0-0.4,0c-0.2,0-0.4,0-0.5-0.1s-0.2-0.1-0.3-0.2
				c0-0.1-0.1-0.2-0.2-0.3c-0.1-0.2-0.1-0.3-0.2-0.5c-0.1-0.2-0.1-0.4-0.2-0.6s-0.1-0.4-0.2-0.6c-0.1-0.2-0.1-0.4-0.2-0.6
				s-0.1-0.4-0.1-0.5c0.1-0.1,0.2-0.1,0.3-0.2s0.2-0.1,0.4-0.1c0.2,0,0.3,0,0.4,0.1s0.2,0.2,0.3,0.4l0.3,1.1
				c0.1,0.2,0.1,0.4,0.1,0.6c0.1,0.2,0.1,0.3,0.1,0.4h0c0.1-0.4,0.2-0.8,0.3-1.2c0.1-0.4,0.2-0.9,0.3-1.3c0.1,0,0.2-0.1,0.3-0.1
				s0.2,0,0.3,0c0.2,0,0.3,0,0.4,0.1c0.1,0.1,0.2,0.2,0.2,0.4c0,0.1,0,0.2-0.1,0.3s-0.1,0.3-0.1,0.5s-0.1,0.4-0.2,0.6
				s-0.1,0.4-0.2,0.6s-0.2,0.4-0.2,0.6C132.1,41.9,132,42.1,131.9,42.2z"/>
			<path class="st3" d="M136.6,42.4c-0.3,0-0.6,0-0.8-0.1c-0.3-0.1-0.5-0.2-0.6-0.4c-0.2-0.2-0.3-0.4-0.4-0.6s-0.2-0.5-0.2-0.9
				c0-0.3,0.1-0.6,0.2-0.8c0.1-0.2,0.2-0.4,0.4-0.6s0.4-0.3,0.6-0.3s0.4-0.1,0.7-0.1c0.3,0,0.5,0,0.7,0.1c0.2,0.1,0.4,0.2,0.6,0.3
				c0.1,0.1,0.3,0.3,0.4,0.5s0.1,0.4,0.1,0.6c0,0.2-0.1,0.3-0.1,0.4s-0.2,0.1-0.4,0.2l-1.8,0.3c0.1,0.2,0.2,0.3,0.3,0.4
				s0.4,0.1,0.6,0.1c0.2,0,0.4,0,0.6-0.1c0.2,0,0.3-0.1,0.4-0.2c0.1,0,0.1,0.1,0.2,0.2c0.1,0.1,0.1,0.2,0.1,0.3
				c0,0.2-0.1,0.4-0.3,0.5c-0.2,0.1-0.3,0.1-0.5,0.2S136.8,42.4,136.6,42.4z M136.4,39.5c-0.1,0-0.2,0-0.3,0.1s-0.2,0.1-0.2,0.2
				s-0.1,0.1-0.1,0.2c0,0.1,0,0.2-0.1,0.2L137,40c0-0.1-0.1-0.2-0.2-0.3C136.7,39.6,136.6,39.5,136.4,39.5z"/>
			<path class="st3" d="M141.2,42.3c-0.1,0-0.1,0-0.2,0s-0.2,0-0.3,0c-0.1,0-0.2,0-0.3,0s-0.2,0-0.2-0.1s-0.1-0.1-0.1-0.2
				c0-0.1-0.1-0.2-0.1-0.3v-2.2c0-0.1,0-0.2,0.1-0.3s0.1-0.2,0.2-0.2c0.1-0.1,0.2-0.1,0.3-0.2c0.1,0,0.2-0.1,0.4-0.1
				c0.1,0,0.3-0.1,0.4-0.1s0.3,0,0.4,0c0.2,0,0.4,0,0.6,0.1s0.2,0.2,0.2,0.4c0,0.1,0,0.1,0,0.2c0,0.1,0,0.1-0.1,0.2
				c-0.1,0-0.2,0-0.3,0s-0.2,0-0.3,0c-0.1,0-0.2,0-0.3,0.1s-0.2,0-0.2,0.1L141.2,42.3L141.2,42.3z"/>
		</g>
	</g>
</g>
<g>
	<g>
		<path class="st4" d="M67.5,3.2c0.1,0.1,0.2,0.3,0.2,0.5c0.1,0.2,0.1,0.4,0.1,0.7c0,0.4-0.1,0.8-0.3,1s-0.4,0.3-0.8,0.3h-3.6v2h3.8
			C67,7.6,67.1,7.8,67.2,8c0.1,0.2,0.1,0.4,0.1,0.7c0,0.4-0.1,0.8-0.3,0.9c-0.2,0.2-0.4,0.3-0.8,0.3h-3v3.6c-0.1,0-0.3,0.1-0.6,0.1
			c-0.3,0-0.5,0.1-0.8,0.1s-0.5,0-0.7-0.1c-0.2,0-0.4-0.1-0.5-0.2c-0.1-0.1-0.2-0.2-0.3-0.4c-0.1-0.2-0.1-0.4-0.1-0.7V4.8
			c0-0.5,0.1-0.9,0.4-1.2c0.3-0.3,0.7-0.4,1.2-0.4H67.5z"/>
		<path class="st4" d="M77.4,9.4c0,0.7-0.1,1.3-0.3,1.9c-0.2,0.6-0.5,1-0.9,1.4c-0.4,0.4-0.9,0.7-1.4,0.9c-0.6,0.2-1.2,0.3-1.8,0.3
			c-0.7,0-1.3-0.1-1.8-0.3s-1-0.5-1.4-0.9c-0.4-0.4-0.7-0.9-0.9-1.4c-0.2-0.6-0.3-1.2-0.3-1.9c0-0.7,0.1-1.3,0.3-1.8
			c0.2-0.6,0.5-1,0.9-1.4s0.9-0.7,1.4-0.9C71.6,5.1,72.2,5,72.9,5c0.7,0,1.3,0.1,1.8,0.3c0.6,0.2,1,0.5,1.4,0.9
			c0.4,0.4,0.7,0.9,0.9,1.4C77.3,8.1,77.4,8.8,77.4,9.4z M71.4,9.4c0,0.7,0.1,1.2,0.4,1.6c0.3,0.4,0.6,0.6,1.1,0.6
			c0.5,0,0.9-0.2,1.1-0.6c0.3-0.4,0.4-0.9,0.4-1.6c0-0.7-0.1-1.2-0.4-1.6c-0.3-0.4-0.6-0.6-1.1-0.6c-0.5,0-0.9,0.2-1.1,0.6
			C71.5,8.2,71.4,8.7,71.4,9.4z"/>
		<path class="st4" d="M87.5,9.4c0,0.7-0.1,1.3-0.3,1.9c-0.2,0.6-0.5,1-0.9,1.4c-0.4,0.4-0.9,0.7-1.4,0.9c-0.6,0.2-1.2,0.3-1.8,0.3
			c-0.7,0-1.3-0.1-1.8-0.3s-1-0.5-1.4-0.9c-0.4-0.4-0.7-0.9-0.9-1.4c-0.2-0.6-0.3-1.2-0.3-1.9c0-0.7,0.1-1.3,0.3-1.8
			c0.2-0.6,0.5-1,0.9-1.4s0.9-0.7,1.4-0.9C81.7,5.1,82.3,5,83,5c0.7,0,1.3,0.1,1.8,0.3c0.6,0.2,1,0.5,1.4,0.9
			C86.7,6.6,87,7,87.2,7.6S87.5,8.8,87.5,9.4z M81.5,9.4c0,0.7,0.1,1.2,0.4,1.6c0.3,0.4,0.6,0.6,1.1,0.6c0.5,0,0.9-0.2,1.1-0.6
			c0.3-0.4,0.4-0.9,0.4-1.6c0-0.7-0.1-1.2-0.4-1.6c-0.3-0.4-0.6-0.6-1.1-0.6c-0.5,0-0.9,0.2-1.1,0.6C81.6,8.2,81.5,8.7,81.5,9.4z"/>
		<path class="st4" d="M88.6,9.4c0-0.8,0.1-1.4,0.3-2s0.5-1,1-1.4s0.9-0.6,1.4-0.8C91.9,5.1,92.5,5,93.1,5c0.2,0,0.5,0,0.7,0.1
			c0.2,0,0.4,0.1,0.5,0.1V2.4c0.1,0,0.3-0.1,0.6-0.1c0.3,0,0.5-0.1,0.8-0.1c0.3,0,0.5,0,0.7,0.1s0.4,0.1,0.5,0.2
			c0.1,0.1,0.2,0.2,0.3,0.4c0.1,0.2,0.1,0.4,0.1,0.7v8.2c0,0.5-0.3,1-0.8,1.3c-0.3,0.2-0.8,0.4-1.3,0.6s-1.1,0.3-1.8,0.3
			c-0.7,0-1.4-0.1-2-0.3s-1.1-0.5-1.5-0.9s-0.7-0.9-0.9-1.4C88.7,10.7,88.6,10.1,88.6,9.4z M93.5,7.3c-0.6,0-1.1,0.2-1.4,0.5
			c-0.3,0.4-0.5,0.9-0.5,1.6c0,0.7,0.2,1.3,0.5,1.6c0.3,0.4,0.8,0.5,1.3,0.5c0.2,0,0.4,0,0.6-0.1c0.2-0.1,0.3-0.1,0.4-0.2V7.5
			C94.1,7.3,93.8,7.3,93.5,7.3z"/>
	</g>
</g>
</svg>
