<?xml version="1.0" encoding="utf-8"?>
<!-- Generator: Adobe Illustrator 24.2.0, SVG Export Plug-In . SVG Version: 6.00 Build 0)  -->
<svg version="1.1" id="Layer_1" xmlns="http://www.w3.org/2000/svg" xmlns:xlink="http://www.w3.org/1999/xlink" x="0px" y="0px"
	 viewBox="0 0 63.6 39" style="enable-background:new 0 0 63.6 39;" xml:space="preserve">
<style type="text/css">
	.st0{fill:#5F9EA0;}
</style>
<g>
	<path class="st0" d="M8.4,34.6L8.4,34.6c-2.8-1.4-4-4.8-2.6-7.7L15.9,6.7c1.4-2.8,4.8-4,7.7-2.6l0,0c2.8,1.4,4,4.8,2.6,7.7L16,32
		C14.6,34.8,11.2,36,8.4,34.6z"/>
	<path class="st0" d="M26.5,34.6L26.5,34.6c-2.8-1.4-4-4.8-2.6-7.7L34,6.7c1.4-2.8,4.8-4,7.7-2.6l0,0c2.8,1.4,4,4.8,2.6,7.7L34.1,32
		C32.7,34.8,29.3,36,26.5,34.6z"/>
	<circle class="st0" cx="50.2" cy="27" r="7.6"/>
</g>
</svg>
